<svg width="25" height="24" viewBox="0 0 25 24" fill="none" xmlns="http://www.w3.org/2000/svg">
<path d="M13.2813 2.37578C12.9003 1.90078 12.1003 1.90078 11.7193 2.37578L3.71927 12.3758C3.60191 12.523 3.52845 12.7003 3.50731 12.8874C3.48617 13.0745 3.51822 13.2637 3.59977 13.4334C3.68132 13.6031 3.80908 13.7463 3.96836 13.8467C4.12765 13.9471 4.31201 14.0005 4.50027 14.0008H8.50027V21.0008C8.50027 21.266 8.60563 21.5204 8.79317 21.7079C8.9807 21.8954 9.23506 22.0008 9.50027 22.0008H15.5003C15.7655 22.0008 16.0198 21.8954 16.2074 21.7079C16.3949 21.5204 16.5003 21.266 16.5003 21.0008V14.0008H20.5003C20.6885 14.0005 20.8729 13.9471 21.0322 13.8467C21.1915 13.7463 21.3192 13.6031 21.4008 13.4334C21.4823 13.2637 21.5144 13.0745 21.4932 12.8874C21.4721 12.7003 21.3986 12.523 21.2813 12.3758L13.2813 2.37578ZM15.5003 12.0008H14.5003V20.0008H10.5003V12.0008H6.58127L12.5003 4.60178L18.4193 12.0008H15.5003Z" fill="white"/>
</svg>
