<!DOCTYPE svg PUBLIC "-//W3C//DTD SVG 1.1//EN" "http://www.w3.org/Graphics/SVG/1.1/DTD/svg11.dtd">
<!-- Uploaded to: SVG Repo, www.svgrepo.com, Transformed by: SVG Repo Mixer Tools -->
<svg fill="#42c9f5" height="800px" width="800px" version="1.1" id="Layer_1" xmlns="http://www.w3.org/2000/svg" xmlns:xlink="http://www.w3.org/1999/xlink" viewBox="0 0 368.373 368.373" xml:space="preserve" stroke="#42c9f5">
<g id="SVGRepo_bgCarrier" stroke-width="0"/>
<g id="SVGRepo_tracerCarrier" stroke-linecap="round" stroke-linejoin="round"/>
<g id="SVGRepo_iconCarrier"> <g id="XMLID_87_"> <path id="XMLID_88_" d="M263.373,136.937c-34.488,0-65.144,16.716-84.297,42.469c-7.763-1.627-15.694-2.469-23.703-2.469 c-8.643,0-17.063,0.965-25.165,2.781c-14.256-13.145-32.943-20.532-52.585-20.532C34.822,159.186,0,194.007,0,236.809 c0,8.284,6.716,15,15,15h32.602c-4.669,12.5-7.229,26.019-7.229,40.128c0,8.284,6.716,15,15,15h125.596 c19.246,24.348,49.031,40,82.404,40c57.897,0,105-47.103,105-105S321.27,136.937,263.373,136.937z M32.42,221.809 c6.298-18.934,24.182-32.623,45.203-32.623c6.617,0,13.051,1.382,18.964,3.95c-12.484,7.456-23.442,17.209-32.29,28.673H32.42z M71.698,276.937c7.105-39.739,41.923-70,83.675-70c2.966,0,5.914,0.164,8.841,0.467c-3.779,10.82-5.841,22.439-5.841,34.533 c0,12.268,2.122,24.047,6.006,35H71.698z M263.373,316.937c-41.355,0-75-33.645-75-75s33.645-75,75-75s75,33.645,75,75 S304.728,316.937,263.373,316.937z"/> <path id="XMLID_93_" d="M302.932,225.875l-22.688-3.297l-10.145-20.559c-1.263-2.56-3.871-4.181-6.726-4.181 c-2.855,0-5.462,1.621-6.726,4.181l-10.146,20.559l-22.688,3.297c-2.825,0.41-5.172,2.389-6.055,5.104 c-0.882,2.715-0.146,5.695,1.898,7.688l16.416,16.001l-3.876,22.598c-0.482,2.814,0.674,5.657,2.983,7.335 c2.31,1.678,5.372,1.901,7.898,0.571l20.293-10.668l20.294,10.668c1.097,0.577,2.295,0.861,3.489,0.861c0.007,0,0.015,0,0.021,0 c4.142,0,7.499-3.358,7.499-7.5c0-0.629-0.078-1.24-0.223-1.824l-3.781-22.041l16.416-16.001c2.044-1.993,2.78-4.974,1.898-7.688 C308.104,228.264,305.757,226.285,302.932,225.875z"/> <path id="XMLID_102_" d="M77.623,129.186c9.942,0,19.137-3.247,26.593-8.727c11.382,16.006,30.063,26.479,51.157,26.479 c34.601,0,62.75-28.149,62.75-62.749c0-34.601-28.149-62.751-62.75-62.751c-21.093,0-39.773,10.472-51.156,26.479 c-7.456-5.482-16.651-8.729-26.594-8.729c-24.813,0-45,20.188-45,45.001C32.623,108.999,52.81,129.186,77.623,129.186z M155.373,51.437c18.059,0,32.75,14.692,32.75,32.751c0,18.058-14.691,32.749-32.75,32.749s-32.75-14.691-32.75-32.749 C122.623,66.129,137.314,51.437,155.373,51.437z M77.623,69.186c8.271,0,15,6.729,15,15.001c0,8.271-6.729,14.999-15,14.999 s-15-6.729-15-14.999C62.623,75.915,69.352,69.186,77.623,69.186z"/> </g> </g>
</svg>