<?xml version="1.0" standalone="no"?>
<!DOCTYPE svg PUBLIC "-//W3C//DTD SVG 20010904//EN"
 "http://www.w3.org/TR/2001/REC-SVG-20010904/DTD/svg10.dtd">
<svg version="1.0" xmlns="http://www.w3.org/2000/svg"
 width="500.000000pt" height="500.000000pt" viewBox="0 0 500.000000 500.000000"
 preserveAspectRatio="xMidYMid meet">

<g transform="translate(0.000000,500.000000) scale(0.100000,-0.100000)"
fill="#000000" stroke="none">
<path d="M3029 4323 c-21 -27 -21 -34 -15 -173 3 -80 9 -189 12 -243 l7 -97
-44 20 c-59 26 -133 26 -159 0 -39 -39 -16 -77 65 -110 44 -18 64 -34 98 -79
27 -36 57 -63 85 -76 40 -19 42 -22 36 -55 -19 -112 -132 -388 -189 -464 -15
-20 -16 -20 -85 3 -39 12 -70 25 -70 28 0 4 30 35 68 69 74 69 70 75 -28 49
-71 -19 -67 -20 -74 18 -9 50 -64 157 -105 207 -37 45 -37 46 -49 180 -25 280
-93 630 -122 630 -23 0 -171 -294 -250 -495 -24 -60 -47 -116 -53 -122 -5 -7
-28 -13 -51 -13 -51 0 -160 -23 -245 -51 l-64 -22 -21 29 c-95 130 -440 494
-469 494 -20 0 -25 -34 -33 -217 -7 -179 7 -399 37 -565 19 -108 19 -108 -1
-168 -11 -32 -20 -84 -20 -113 l0 -55 -88 -17 c-48 -9 -100 -22 -117 -29 l-30
-13 30 -6 c17 -4 75 -11 129 -17 55 -6 102 -13 105 -16 3 -4 -2 -11 -13 -18
-56 -34 -154 -101 -171 -119 -20 -19 -20 -19 20 -13 121 20 248 34 261 29 21
-8 19 -14 -37 -102 -28 -44 -49 -85 -47 -91 1 -5 35 10 74 34 39 24 89 53 111
64 39 20 40 20 98 1 32 -10 98 -24 147 -31 74 -10 88 -14 82 -27 -167 -403
-245 -845 -261 -1484 -7 -284 -9 -297 -54 -297 -29 0 -77 -27 -89 -49 -17 -33
-12 -88 10 -109 28 -26 140 -38 176 -19 22 11 33 12 63 1 28 -9 42 -10 66 0
61 25 69 96 18 169 l-28 40 0 211 c1 175 5 233 24 341 34 192 117 501 141 528
4 5 13 -31 20 -80 6 -48 20 -138 31 -200 10 -62 19 -118 19 -126 0 -9 -14 -17
-34 -20 -102 -16 -151 -120 -126 -264 25 -144 120 -274 259 -353 33 -19 61
-38 61 -41 0 -3 -44 -9 -98 -11 -146 -9 -189 -32 -199 -107 -8 -58 16 -91 65
-91 21 0 43 -5 49 -11 7 -7 47 2 134 30 68 22 157 49 198 60 41 12 79 25 84
30 6 6 25 4 50 -5 23 -8 97 -22 164 -32 l123 -17 0 -38 c0 -54 38 -92 86 -84
18 3 36 1 40 -5 11 -18 65 1 158 56 50 29 105 61 123 71 32 19 57 60 51 86 -4
17 12 15 102 -11 105 -31 207 -43 331 -38 l117 4 107 52 c128 62 200 129 257
238 53 101 69 170 70 300 1 331 -193 623 -482 725 -95 34 -265 34 -332 1 -52
-26 -71 -60 -56 -104 13 -37 51 -48 119 -36 327 61 630 -278 586 -657 -16
-143 -115 -284 -240 -341 -59 -27 -69 -29 -197 -29 -122 0 -144 3 -222 29 -49
15 -88 32 -88 36 0 4 9 33 21 66 25 72 36 235 20 316 -20 110 -106 239 -169
255 -46 11 -252 310 -337 488 -29 61 -63 140 -76 177 l-23 66 69 74 c272 287
454 675 524 1118 15 94 19 106 41 117 67 32 107 123 89 204 -15 66 -34 89 -72
89 -28 0 -36 5 -48 33 -18 42 -69 50 -105 16 l-24 -22 3 202 c2 202 2 203 -22
222 -34 28 -75 24 -102 -8z m-381 -1024 c-13 -128 -134 -184 -241 -111 -26 18
-51 42 -57 52 -12 22 -3 28 79 50 23 6 48 13 56 16 8 4 17 -7 25 -30 6 -20 18
-36 26 -36 13 0 15 8 18 65 1 13 12 24 36 32 60 20 63 19 58 -38z m-448 -117
c0 -16 -7 -51 -15 -78 -49 -166 -251 -204 -386 -73 -40 39 -49 53 -38 59 20
11 249 73 252 69 2 -2 10 -21 20 -42 23 -51 42 -43 42 18 l0 49 45 12 c72 19
80 18 80 -14z m217 -138 c-3 -3 -12 -4 -19 -1 -8 3 -5 6 6 6 11 1 17 -2 13 -5z
m463 -57 c0 -42 -215 -251 -304 -296 -45 -22 -47 -22 -76 -4 -16 9 -30 20 -30
23 0 3 23 18 50 33 69 39 162 127 191 181 22 42 28 46 74 55 55 11 89 18 93
20 1 0 2 -5 2 -12z m-418 -48 c-6 -50 -75 -99 -141 -99 -47 0 -110 43 -79 55
9 4 28 -1 42 -10 45 -30 123 0 146 56 15 34 36 33 32 -2z"/>
</g>
</svg>
