<svg width="24" height="24" viewBox="0 0 24 24" fill="none" xmlns="http://www.w3.org/2000/svg">
<path d="M17.5 21.775H2.5V6.5H11.25V4H2.5C1.125 4 0 5.125 0 6.5V21.5C0 22.875 1.125 24 2.5 24H17.5C18.875 24 20 22.875 20 21.5V12.75H17.5V21.775Z" fill="#FEFEFE"/>
<path d="M20 0H17.3333V4H13.3333C13.3467 4.01333 13.3333 6.66667 13.3333 6.66667H17.3333V10.6533C17.3467 10.6667 20 10.6533 20 10.6533V6.66667H24V4H20V0ZM4 9.33333H14.6667V12H4V9.33333ZM4 13.3333V16H14.6667V13.3333H10.6667H4ZM4 17.3333H14.6667V20H4V17.3333Z" fill="#FEFEFE"/>
</svg>
