<svg width="15" height="15" viewBox="0 0 15 15" fill="none" xmlns="http://www.w3.org/2000/svg">
<path d="M4.5 14.5V11.5C4.5 11.2348 4.60536 10.9804 4.79289 10.7929C4.98043 10.6054 5.23478 10.5 5.5 10.5H9.5C9.76522 10.5 10.0196 10.6054 10.2071 10.7929C10.3946 10.9804 10.5 11.2348 10.5 11.5V14.5M13.5 14.5H1.5C1.23478 14.5 0.98043 14.3946 0.792893 14.2071C0.605357 14.0196 0.5 13.7652 0.5 13.5V1.5C0.5 1.23478 0.605357 0.98043 0.792893 0.792893C0.98043 0.605357 1.23478 0.5 1.5 0.5H10.086C10.3512 0.500057 10.6055 0.605451 10.793 0.793L14.207 4.207C14.3945 4.39449 14.4999 4.64881 14.5 4.914V13.5C14.5 13.7652 14.3946 14.0196 14.2071 14.2071C14.0196 14.3946 13.7652 14.5 13.5 14.5Z" stroke="white"/>
</svg>
