<svg width="20" height="20" viewBox="0 0 20 20" fill="none" xmlns="http://www.w3.org/2000/svg">
<path fill-rule="evenodd" clip-rule="evenodd" d="M5.72986 0.0391282C5.36964 -0.019588 5.00044 -0.0121587 4.64333 0.0609918C4.28622 0.134142 3.94821 0.271581 3.64858 0.465459C3.34896 0.659337 3.09361 0.905857 2.8971 1.19094C2.70059 1.47602 2.56678 1.79408 2.50331 2.12696L0.0423859 15.0292C-0.0859629 15.7013 0.0798613 16.393 0.503383 16.9521C0.926905 17.5113 1.57344 17.8921 2.30077 18.0107L14.2692 19.961C14.9964 20.0793 15.7446 19.926 16.3495 19.5346C16.9543 19.1433 17.3663 18.546 17.4947 17.8741L19.9577 4.97093C20.0212 4.63807 20.0132 4.2969 19.934 3.96691C19.8548 3.63692 19.7061 3.32457 19.4963 3.0477C19.2865 2.77083 19.0197 2.53486 18.7112 2.35328C18.4027 2.17169 18.0585 2.04804 17.6983 1.98939L5.72986 0.0391282ZM7.0221 4.05101C6.92299 4.03303 6.82099 4.03349 6.72208 4.05237C6.62316 4.07125 6.52932 4.10817 6.44603 4.16097C6.36275 4.21377 6.29169 4.28139 6.23703 4.35988C6.18237 4.43836 6.14519 4.52613 6.12768 4.61805C6.11017 4.70997 6.11268 4.80419 6.13505 4.89521C6.15742 4.98622 6.19922 5.0722 6.25799 5.1481C6.31675 5.22401 6.39131 5.28833 6.4773 5.33728C6.5633 5.38624 6.65899 5.41886 6.75879 5.43323L14.7371 6.73403C14.9355 6.76629 15.1398 6.72438 15.3048 6.6175C15.4699 6.51061 15.5822 6.34753 15.6171 6.16411C15.652 5.98069 15.6067 5.79197 15.491 5.63946C15.3753 5.48695 15.1988 5.38314 15.0004 5.35088L7.0221 4.05101ZM5.43921 8.30715C5.47427 8.12387 5.58669 7.96095 5.75173 7.85425C5.91677 7.74755 6.12091 7.70579 6.31927 7.73817L14.2975 9.03803C14.3973 9.0524 14.493 9.08502 14.579 9.13398C14.665 9.18293 14.7396 9.24725 14.7983 9.32316C14.8571 9.39907 14.8989 9.48504 14.9213 9.57606C14.9436 9.66707 14.9461 9.76129 14.9286 9.85321C14.9111 9.94513 14.8739 10.0329 14.8193 10.1114C14.7646 10.1899 14.6936 10.2575 14.6103 10.3103C14.527 10.3631 14.4332 10.4 14.3342 10.4189C14.2353 10.4378 14.1333 10.4382 14.0342 10.4202L6.05494 9.11945C5.8568 9.08704 5.68068 8.98329 5.56524 8.831C5.44979 8.6787 5.40447 8.4903 5.43921 8.30715ZM5.61542 11.4235C5.51631 11.4055 5.41432 11.4059 5.3154 11.4248C5.21649 11.4437 5.12264 11.4806 5.03935 11.5334C4.95607 11.5862 4.88502 11.6538 4.83035 11.7323C4.77569 11.8108 4.73852 11.8986 4.721 11.9905C4.70349 12.0824 4.706 12.1766 4.72837 12.2676C4.75075 12.3587 4.79254 12.4446 4.85131 12.5205C4.91008 12.5964 4.98464 12.6608 5.07063 12.7097C5.15662 12.7587 5.25231 12.7913 5.35211 12.8057L10.3388 13.6189C10.5373 13.6512 10.7415 13.6092 10.9065 13.5024C11.0716 13.3955 11.1839 13.2324 11.2188 13.049C11.2538 12.8656 11.2084 12.6768 11.0927 12.5243C10.9771 12.3718 10.8006 12.268 10.6021 12.2357L5.61542 11.4235Z" fill="white"/>
</svg>
