<svg width="25" height="24" viewBox="0 0 25 24" fill="none" xmlns="http://www.w3.org/2000/svg">
<path d="M21.4013 10.566C21.3196 10.3964 21.1917 10.2533 21.0323 10.1532C20.8729 10.0531 20.6885 9.99998 20.5003 10H16.5003V3C16.5003 2.73478 16.3949 2.48043 16.2074 2.29289C16.0198 2.10536 15.7655 2 15.5003 2H9.50027C9.23506 2 8.9807 2.10536 8.79317 2.29289C8.60563 2.48043 8.50027 2.73478 8.50027 3V10H4.50027C4.31201 10.0003 4.12765 10.0537 3.96836 10.1541C3.80908 10.2545 3.68132 10.3977 3.59977 10.5674C3.51822 10.7371 3.48617 10.9263 3.50731 11.1134C3.52845 11.3005 3.60191 11.4778 3.71927 11.625L11.7193 21.625C11.813 21.7422 11.9318 21.8367 12.067 21.9017C12.2022 21.9667 12.3503 22.0005 12.5003 22.0005C12.6503 22.0005 12.7984 21.9667 12.9336 21.9017C13.0688 21.8367 13.1876 21.7422 13.2813 21.625L21.2813 11.625C21.5213 11.324 21.5673 10.913 21.4013 10.566ZM12.5003 19.399L6.58127 12H10.5003V4H14.5003V12H18.4193L12.5003 19.399Z" fill="white"/>
</svg>
