<svg width="24" height="24" viewBox="0 0 24 24" fill="none" xmlns="http://www.w3.org/2000/svg">
<rect width="24" height="24" rx="12" fill="#1E1E2F"/>
<path d="M20.9013 10.566C20.8196 10.3964 20.6917 10.2533 20.5323 10.1532C20.3729 10.0531 20.1885 9.99998 20.0003 10H16.0003V3C16.0003 2.73478 15.8949 2.48043 15.7074 2.29289C15.5198 2.10536 15.2655 2 15.0003 2H9.00027C8.73506 2 8.4807 2.10536 8.29317 2.29289C8.10563 2.48043 8.00027 2.73478 8.00027 3V10H4.00027C3.81201 10.0003 3.62765 10.0537 3.46836 10.1541C3.30908 10.2545 3.18132 10.3977 3.09977 10.5674C3.01822 10.7371 2.98617 10.9263 3.00731 11.1134C3.02845 11.3005 3.10191 11.4778 3.21927 11.625L11.2193 21.625C11.313 21.7422 11.4318 21.8367 11.567 21.9017C11.7022 21.9667 11.8503 22.0005 12.0003 22.0005C12.1503 22.0005 12.2984 21.9667 12.4336 21.9017C12.5688 21.8367 12.6876 21.7422 12.7813 21.625L20.7813 11.625C21.0213 11.324 21.0673 10.913 20.9013 10.566ZM12.0003 19.399L6.08127 12H10.0003V4H14.0003V12H17.9193L12.0003 19.399Z" fill="#42C8F5"/>
</svg>
