<svg width="525" height="525" viewBox="0 0 525 525" fill="none" xmlns="http://www.w3.org/2000/svg">
<circle cx="262.5" cy="262.5" r="262.5" fill="#0C0C0C"/>
<circle cx="262.5" cy="262.5" r="55.5" fill="black"/>
<path d="M260.373 29.2324L260.191 26.3331L256.698 26.5522L256.62 25.3227L260.114 25.1035L259.922 22.0505L255.667 22.3175L255.59 21.0879L261.466 20.7192L262.071 30.3602L256.272 30.7241L256.376 29.4831L260.373 29.2324Z" fill="white"/>
<path d="M231.666 22.5749L233.043 29.8374L231.716 30.0892L231.42 29.1691C231.188 29.5979 230.884 29.9477 230.508 30.2185C230.132 30.4894 229.726 30.6661 229.29 30.7487C228.612 30.8774 228.069 30.7832 227.662 30.4661C227.252 30.1545 226.982 29.6571 226.852 28.9739L225.848 23.6783L227.388 23.3862L228.248 27.9184C228.328 28.3402 228.417 28.6747 228.517 28.9219C228.616 29.1691 228.752 29.3356 228.925 29.4216C229.093 29.5084 229.324 29.5239 229.618 29.4683C229.851 29.4239 230.064 29.3313 230.256 29.1905C230.448 29.0496 230.615 28.8801 230.758 28.682C230.902 28.4885 231.021 28.2879 231.114 28.0801L230.125 22.8671L231.666 22.5749Z" fill="white"/>
<path d="M199.212 36.8553L197.408 31.303C197.124 30.4287 197.07 29.6439 197.246 28.9487C197.418 28.2549 197.797 27.6239 198.383 27.0558C198.967 26.4832 199.732 25.943 200.675 25.4351L201.287 26.5023C200.634 26.8618 200.088 27.2429 199.649 27.6454C199.211 28.0479 198.918 28.4987 198.771 28.9979C198.624 29.4971 198.656 30.0706 198.867 30.7186L200.348 35.279L203.124 34.377L203.479 35.4688L199.212 36.8553ZM201.495 39.9186C201.207 40.0124 200.943 40 200.703 39.8816C200.463 39.7632 200.3 39.5709 200.214 39.3046C200.127 39.0383 200.145 38.7846 200.268 38.5435C200.391 38.3024 200.597 38.135 200.885 38.0413C201.174 37.9475 201.438 37.9621 201.679 38.0849C201.916 38.2092 202.078 38.4045 202.164 38.6708C202.251 38.9371 202.234 39.1879 202.114 39.4231C201.99 39.6597 201.784 39.8249 201.495 39.9186Z" fill="white"/>
<path d="M173.605 45.7032C172.951 46.0114 172.331 46.1253 171.747 46.0447C171.162 45.9642 170.632 45.7159 170.158 45.2998C169.679 44.8856 169.272 44.3239 168.938 43.6146C168.606 42.9096 168.433 42.2354 168.419 41.5921C168.403 40.955 168.551 40.3823 168.863 39.874C169.174 39.372 169.652 38.9688 170.298 38.6646C170.944 38.3603 171.559 38.2433 172.144 38.3134C172.727 38.3897 173.261 38.636 173.746 39.0524C174.226 39.4707 174.636 40.0388 174.974 40.7565C175.302 41.4531 175.474 42.1199 175.491 42.757C175.503 43.3961 175.352 43.9698 175.04 44.4781C174.729 44.9906 174.251 45.399 173.605 45.7032ZM173.086 44.6013C173.597 44.3607 173.889 43.9834 173.961 43.4695C174.036 42.9598 173.877 42.2891 173.486 41.4574C173.096 40.6299 172.682 40.0795 172.244 39.8062C171.801 39.5349 171.325 39.5195 170.814 39.7601C170.303 40.0007 170.013 40.377 169.945 40.8889C169.872 41.4029 170.033 42.0778 170.427 42.9137C170.814 43.737 171.226 44.2831 171.663 44.5522C172.101 44.8256 172.575 44.8419 173.086 44.6013Z" fill="white"/>
<path d="M144.132 60.2002L142.304 52.5707C142.166 51.9954 142.108 51.4485 142.133 50.9299C142.155 50.4073 142.293 49.9106 142.546 49.4398C142.8 48.969 143.202 48.5229 143.753 48.1013L144.555 48.9852C144.176 49.3199 143.904 49.631 143.738 49.9187C143.566 50.2048 143.473 50.4986 143.46 50.8C143.443 51.1038 143.473 51.4417 143.548 51.8137L143.997 51.5284L150.064 56.432L148.658 57.3253L143.708 53.0057L145.491 59.3369L144.132 60.2002Z" fill="white"/>
<path d="M95.0193 89.4234C94.7826 89.6748 94.6044 89.9493 94.4846 90.2467C94.3682 90.5474 94.287 90.8618 94.2408 91.19L93.0078 91.0292C93.028 90.606 93.1336 90.1671 93.3245 89.7123C93.5157 89.2642 93.7792 88.8617 94.115 88.5049C94.6332 87.9544 95.1917 87.5925 95.7906 87.4193C96.3929 87.2492 97.0023 87.2588 97.6188 87.4482C98.2353 87.6375 98.8239 87.9961 99.3845 88.5239C99.9316 89.0388 100.322 89.6015 100.555 90.2118C100.788 90.8287 100.843 91.451 100.72 92.0786C100.601 92.7095 100.28 93.3019 99.7587 93.8558C99.4132 94.2228 99.0406 94.5097 98.6408 94.7165C98.241 94.9234 97.8125 95.0552 97.3553 95.112L97.1308 93.9104C97.4752 93.8373 97.7888 93.7255 98.0714 93.575C98.3543 93.4311 98.6045 93.2436 98.822 93.0125C99.2218 92.5878 99.3934 92.0923 99.3366 91.5262C99.2767 90.9635 98.912 90.3671 98.2426 89.737C97.7941 89.3147 97.3746 89.0353 96.9842 88.8985C96.594 88.7683 96.2337 88.7528 95.9033 88.8519C95.5762 88.9543 95.2816 89.1448 95.0193 89.4234Z" fill="white"/>
<path d="M80.2507 115.03C79.8243 115.614 79.3353 116.011 78.7836 116.221C78.232 116.431 77.6481 116.467 77.0321 116.33C76.4134 116.196 75.7873 115.898 75.154 115.436C74.5244 114.977 74.0491 114.468 73.7281 113.911C73.4082 113.359 73.2634 112.786 73.2938 112.19C73.3252 111.601 73.5513 111.017 73.9722 110.441C74.393 109.864 74.8769 109.466 75.4238 109.247C75.9717 109.034 76.5583 108.994 77.1835 109.127C77.8061 109.263 78.4378 109.565 79.0786 110.033C79.7007 110.487 80.1717 110.989 80.4917 111.541C80.8089 112.095 80.9523 112.671 80.9219 113.267C80.8952 113.865 80.6715 114.453 80.2507 115.03ZM79.2667 114.312C79.5995 113.856 79.6745 113.385 79.4917 112.899C79.3126 112.416 78.8518 111.904 78.1091 111.362C77.3702 110.823 76.7429 110.538 76.2273 110.509C75.7089 110.483 75.2833 110.698 74.9505 111.154C74.6177 111.611 74.544 112.08 74.7296 112.562C74.9124 113.047 75.3771 113.563 76.1235 114.107C76.8587 114.644 77.4822 114.925 77.994 114.952C78.5097 114.982 78.9339 114.768 79.2667 114.312Z" fill="white"/>
<path d="M65.1314 141.523L64.2195 142.811L55.1532 137.798L55.8205 136.591L56.671 136.933C56.4867 136.543 56.3955 136.149 56.3974 135.75C56.3993 135.351 56.5053 134.962 56.7153 134.582C57.0224 134.027 57.4162 133.647 57.8967 133.444C58.3813 133.242 58.9274 133.195 59.535 133.302C60.1444 133.415 60.7861 133.657 61.4599 134.03C62.1174 134.394 62.645 134.819 63.0425 135.305C63.4442 135.794 63.6871 136.309 63.7711 136.852C63.8551 137.394 63.7492 137.933 63.4534 138.468C63.266 138.807 63.0365 139.077 62.7649 139.279C62.4974 139.483 62.1918 139.626 61.8479 139.708L65.1314 141.523ZM62.1999 138.247C62.4551 137.785 62.4619 137.32 62.2202 136.85C61.9827 136.383 61.4617 135.927 60.6571 135.482C60.1058 135.177 59.6272 134.982 59.2214 134.896C58.8196 134.812 58.4817 134.825 58.2077 134.935C57.9378 135.047 57.7249 135.244 57.5691 135.526C57.3975 135.836 57.3383 136.156 57.3915 136.484C57.4448 136.812 57.5539 137.125 57.7191 137.425L60.782 139.118C61.0988 139.086 61.3771 138.997 61.6171 138.852C61.8611 138.71 62.0554 138.508 62.1999 138.247Z" fill="white"/>
<path d="M48.7022 165.665L42.9011 163.355L42.1579 165.222L41.0913 164.797L43.2328 159.419L44.2994 159.844L43.4811 161.899L48.2156 163.784L49.008 161.794L50.0746 162.218L48.7022 165.665ZM52.4684 165.989C52.3545 166.276 52.1762 166.471 51.9338 166.575C51.6896 166.684 51.4374 166.687 51.1773 166.583C50.9171 166.479 50.7336 166.303 50.6266 166.055C50.5179 165.811 50.5205 165.545 50.6344 165.259C50.7449 164.982 50.9244 164.79 51.173 164.683C51.4215 164.576 51.6758 164.574 51.936 164.677C52.1961 164.781 52.3775 164.956 52.4801 165.203C52.5828 165.45 52.5789 165.712 52.4684 165.989Z" fill="white"/>
<path d="M32.1306 187.287L39.2879 189.135L38.9501 190.443L37.9918 190.319C38.2808 190.711 38.4677 191.135 38.5525 191.591C38.6373 192.047 38.6243 192.489 38.5134 192.918C38.3408 193.587 38.0244 194.038 37.5642 194.271C37.1073 194.51 36.5423 194.542 35.869 194.368L30.6501 193.021L31.0421 191.503L35.5087 192.656C35.9244 192.763 36.2652 192.825 36.531 192.84C36.7969 192.856 37.0056 192.804 37.157 192.684C37.3073 192.569 37.4198 192.366 37.4944 192.077C37.5539 191.847 37.5608 191.615 37.5151 191.381C37.4693 191.148 37.3873 190.924 37.269 190.71C37.1552 190.498 37.0242 190.305 36.8761 190.132L31.7386 188.805L32.1306 187.287Z" fill="white"/>
<path d="M32.0455 223.774L30.7008 224.026C30.6408 223.722 30.6171 223.392 30.6296 223.036C30.6416 222.685 30.675 222.294 30.73 221.863C30.4794 222.278 30.1872 222.577 29.8533 222.76C29.524 222.944 29.1395 223.008 28.6997 222.952C28.2229 222.891 27.8119 222.721 27.4665 222.441C27.1211 222.162 26.8694 221.793 26.7114 221.336C26.5535 220.878 26.5129 220.348 26.5898 219.747C26.617 219.534 26.6499 219.35 26.6885 219.195C26.7265 219.044 26.7759 218.898 26.8364 218.755C26.7834 218.654 26.7055 218.564 26.6027 218.485C26.5039 218.411 26.3944 218.367 26.274 218.351C26.1259 218.332 25.9886 218.376 25.8621 218.482C25.7397 218.594 25.6551 218.832 25.6084 219.198L25.4452 220.475C25.3784 220.998 25.2293 221.448 24.998 221.823C24.7706 222.203 24.4874 222.487 24.1483 222.674C23.8132 222.866 23.4512 222.938 23.0624 222.888C22.331 222.795 21.8041 222.407 21.4818 221.726C21.1595 221.045 21.074 220.112 21.2254 218.927C21.3324 218.089 21.502 217.443 21.7341 216.988C21.9663 216.533 22.2638 216.23 22.6265 216.079C22.9893 215.928 23.416 215.883 23.9067 215.946L23.7284 217.342C23.4738 217.309 23.257 217.331 23.0779 217.407C22.8983 217.487 22.7493 217.659 22.6311 217.921C22.5129 218.184 22.421 218.572 22.3554 219.086C22.2898 219.6 22.2817 220.013 22.3312 220.325C22.3755 220.641 22.4701 220.876 22.615 221.031C22.7547 221.19 22.9356 221.284 23.1578 221.312C23.454 221.35 23.6997 221.25 23.8949 221.011C24.09 220.773 24.2153 220.436 24.2709 220.001L24.4314 218.744C24.5201 218.05 24.7263 217.558 25.0501 217.271C25.3732 216.987 25.7223 216.869 26.0973 216.917C26.3472 216.949 26.5791 217.049 26.7928 217.218C27.0059 217.391 27.1813 217.62 27.3188 217.906C27.6065 217.496 27.9276 217.21 28.2823 217.048C28.641 216.892 29.0564 216.844 29.5286 216.904C30.0471 216.97 30.4842 217.158 30.8399 217.467C31.1956 217.775 31.453 218.173 31.612 218.659C31.7705 219.15 31.8113 219.696 31.7344 220.298C31.6593 220.886 31.6268 221.38 31.6367 221.781C31.6512 222.183 31.6977 222.537 31.7762 222.844C31.8541 223.155 31.9439 223.465 32.0455 223.774ZM30.6633 220.175C30.7266 219.68 30.633 219.289 30.3826 219.003C30.1367 218.718 29.7893 218.546 29.3403 218.489C28.8774 218.43 28.4885 218.509 28.1736 218.728C27.8628 218.952 27.6757 219.311 27.6124 219.807C27.5539 220.265 27.6435 220.631 27.8812 220.906C28.1184 221.186 28.4846 221.358 28.9799 221.421C29.4799 221.485 29.8702 221.412 30.1509 221.203C30.4316 220.995 30.6024 220.652 30.6633 220.175Z" fill="white"/>
<path d="M31.3516 279.409L23.071 280.435C22.7329 280.477 22.5047 280.609 22.3864 280.83C22.2733 281.056 22.2371 281.333 22.2779 281.662C22.3043 281.875 22.3524 282.074 22.4222 282.258C22.4921 282.442 22.5729 282.62 22.6648 282.792L21.6302 283.322C21.492 283.118 21.3615 282.862 21.2385 282.553C21.1161 282.248 21.0297 281.892 20.9791 281.484C20.8879 280.748 21.0228 280.148 21.3839 279.685C21.7502 279.226 22.2945 278.951 23.017 278.862L30.0125 277.995L29.7378 275.779L30.884 275.637L31.3516 279.409Z" fill="white"/>
<path d="M32.535 309.536L26.4834 311.075L26.9783 313.022L25.8657 313.304L24.4397 307.694L25.5523 307.411L26.0972 309.555L31.0362 308.3L30.5085 306.224L31.6212 305.941L32.535 309.536ZM35.7735 307.587C35.8494 307.885 35.8199 308.148 35.6849 308.375C35.5512 308.606 35.3486 308.756 35.0772 308.825C34.8058 308.894 34.5539 308.86 34.3213 308.721C34.0899 308.588 33.9362 308.371 33.8604 308.073C33.7868 307.783 33.8192 307.522 33.9575 307.29C34.0958 307.057 34.3006 306.906 34.572 306.837C34.8434 306.769 35.0931 306.804 35.3211 306.943C35.5492 307.083 35.7 307.297 35.7735 307.587Z" fill="white"/>
<path d="M41.0913 340.129L36.9218 338.559L34.3289 343.131L33.6261 341.346L36.226 336.907L40.4217 338.429L41.0913 340.129ZM42.2225 334.425L32.4204 338.285L31.8458 336.826L41.4851 333.03L42.2225 334.425Z" fill="white"/>
<path d="M46.3696 364.611C45.9433 364.882 45.6327 365.175 45.4379 365.489C45.247 365.801 45.1568 366.122 45.1672 366.452C45.1798 366.785 45.2713 367.108 45.4418 367.419C45.6167 367.738 45.8273 368.006 46.0735 368.222C46.3198 368.438 46.6081 368.634 46.9384 368.81L46.4422 369.856C46.0307 369.688 45.6403 369.441 45.2709 369.117C44.9015 368.792 44.5901 368.399 44.3366 367.937C43.9688 367.265 43.8003 366.618 43.831 365.995C43.8641 365.375 44.0702 364.805 44.4494 364.283C44.8286 363.761 45.3538 363.316 46.0249 362.948C46.6756 362.592 47.3217 362.392 47.9634 362.349C48.6091 362.304 49.2024 362.42 49.7434 362.698C50.2885 362.974 50.7292 363.419 51.0657 364.033C51.3819 364.61 51.5224 365.177 51.487 365.734C51.4538 366.295 51.2575 366.82 50.898 367.31C50.5448 367.802 50.0306 368.232 49.3553 368.602C49.2448 368.663 49.1321 368.719 49.0171 368.772C48.9085 368.826 48.811 368.872 48.7247 368.908L46.3696 364.611ZM50.0534 364.604C49.8179 364.174 49.4693 363.902 49.0076 363.788C48.5482 363.678 47.9808 363.779 47.3054 364.09L48.9506 367.092C49.5536 366.746 49.9504 366.358 50.141 365.929C50.3338 365.504 50.3046 365.062 50.0534 364.604Z" fill="white"/>
<path d="M85.1057 415.815L77.9445 419.019C77.4047 419.261 76.8777 419.419 76.3635 419.49C75.8459 419.565 75.3323 419.521 74.8227 419.359C74.3132 419.196 73.8005 418.883 73.2846 418.42L74.0053 417.469C74.4042 417.78 74.7602 417.99 75.0735 418.099C75.3865 418.216 75.6923 418.252 75.9909 418.21C76.2927 418.17 76.6194 418.079 76.9709 417.936L76.6077 417.547L80.3076 410.68L81.445 411.897L78.1129 417.559L84.0066 414.639L85.1057 415.815Z" fill="white"/>
<path d="M103.118 434.356C103.674 434.819 104.039 435.333 104.213 435.897C104.387 436.461 104.385 437.046 104.208 437.651C104.035 438.26 103.698 438.866 103.196 439.468C102.697 440.067 102.159 440.509 101.582 440.793C101.011 441.077 100.429 441.184 99.8367 441.116C99.2505 441.047 98.6832 440.783 98.1347 440.326C97.5861 439.869 97.2201 439.361 97.0366 438.801C96.8597 438.24 96.8576 437.653 97.0303 437.037C97.2065 436.425 97.5485 435.814 98.0564 435.204C98.5493 434.613 99.081 434.175 99.6516 433.891C100.226 433.61 100.809 433.504 101.402 433.573C101.998 433.638 102.57 433.899 103.118 434.356ZM102.339 435.292C101.905 434.93 101.44 434.825 100.943 434.976C100.45 435.124 99.9087 435.551 99.3202 436.257C98.7346 436.96 98.4105 437.568 98.3478 438.08C98.2887 438.596 98.476 439.034 98.9099 439.396C99.3437 439.757 99.807 439.861 100.3 439.707C100.796 439.556 101.34 439.125 101.932 438.415C102.515 437.716 102.836 437.112 102.895 436.603C102.958 436.09 102.773 435.653 102.339 435.292Z" fill="white"/>
<path d="M124.596 452.33L121.81 456.68C121.573 457.05 121.477 457.36 121.522 457.61C121.571 457.863 121.744 458.085 122.043 458.276C122.326 458.457 122.653 458.548 123.025 458.547C123.396 458.547 123.737 458.474 124.046 458.329L126.93 453.825L128.251 454.671L124.264 460.896L123.126 460.167L123.554 459.318C123.123 459.48 122.678 459.53 122.218 459.469C121.762 459.404 121.348 459.253 120.979 459.016C120.378 458.631 120.033 458.178 119.946 457.656C119.865 457.134 120.011 456.581 120.384 456L123.275 451.484L124.596 452.33Z" fill="white"/>
<path d="M144.871 474.087L145.352 473.075L146.332 473.541L148.548 468.883L147.568 468.417L148.046 467.411L150.107 468.392L149.629 470.064C150.144 469.621 150.654 469.342 151.159 469.226C151.671 469.107 152.217 469.186 152.798 469.463C152.997 469.557 153.166 469.658 153.305 469.766C153.452 469.871 153.591 469.986 153.722 470.111L152.722 471.124C152.605 471.021 152.491 470.934 152.381 470.861C152.273 470.784 152.148 470.711 152.005 470.643C151.52 470.412 151.014 470.394 150.488 470.588C149.966 470.784 149.445 471.167 148.926 471.737L147.748 474.215L149.094 474.855L148.613 475.867L144.871 474.087ZM151.301 471.975L152.083 470.331L152.648 469.6L153.722 470.111L152.313 472.456L151.301 471.975Z" fill="white"/>
<path d="M207.407 487.061C207.852 487.147 208.241 487.263 208.574 487.408C208.912 487.55 209.218 487.713 209.491 487.899L208.832 488.877C208.608 488.729 208.368 488.606 208.111 488.509C207.859 488.413 207.598 488.338 207.327 488.286C206.851 488.194 206.48 488.217 206.216 488.356C205.952 488.491 205.783 488.753 205.707 489.142L205.459 490.427L207.885 490.897L207.5 491.999L205.239 491.561L204.155 497.162L202.623 496.866L203.707 491.265L202.057 490.945L202.277 489.812L203.926 490.131L204.177 488.832C204.266 488.374 204.458 487.995 204.754 487.696C205.055 487.393 205.432 487.185 205.886 487.073C206.341 486.957 206.849 486.953 207.407 487.061Z" fill="white"/>
<path d="M236.372 500.854C236.353 501.142 236.383 501.357 236.463 501.498C236.542 501.634 236.678 501.742 236.869 501.82L236.449 502.858C236.089 502.792 235.784 502.671 235.533 502.496C235.283 502.32 235.101 502.067 234.987 501.737C234.695 502.059 234.336 502.292 233.91 502.437C233.484 502.582 233.036 502.638 232.565 502.607C231.82 502.557 231.243 502.309 230.833 501.86C230.428 501.408 230.249 500.839 230.294 500.155C230.346 499.377 230.688 498.799 231.321 498.42C231.955 498.041 232.835 497.889 233.961 497.964L235.016 498.035L235.048 497.553C235.08 497.078 234.958 496.726 234.683 496.497C234.413 496.269 234.017 496.137 233.496 496.102C233.254 496.086 232.958 496.099 232.609 496.142C232.261 496.179 231.894 496.251 231.508 496.356L231.197 495.227C231.669 495.085 232.129 494.99 232.577 494.94C233.025 494.885 233.438 494.871 233.815 494.896C234.802 494.962 235.523 495.229 235.978 495.699C236.438 496.169 236.642 496.791 236.591 497.564L236.372 500.854ZM233.117 501.486C233.434 501.507 233.749 501.444 234.063 501.296C234.376 501.149 234.637 500.93 234.843 500.64L234.951 499.012L234.085 498.955C233.349 498.906 232.815 498.994 232.482 499.22C232.149 499.441 231.969 499.766 231.94 500.194C231.914 500.585 231.999 500.893 232.195 501.116C232.395 501.335 232.703 501.459 233.117 501.486Z" fill="white"/>
<path d="M267.365 496.541L265.201 504.074L263.37 504.182L260.335 496.956L262.012 496.857L264.244 502.826L265.765 496.636L267.365 496.541Z" fill="white"/>
<path d="M293.024 494.533C293.735 494.401 294.363 494.448 294.909 494.675C295.454 494.901 295.903 495.275 296.257 495.798C296.615 496.32 296.865 496.967 297.008 497.737C297.151 498.504 297.147 499.2 296.998 499.826C296.852 500.446 296.564 500.962 296.132 501.375C295.705 501.782 295.14 502.05 294.438 502.181C293.736 502.311 293.111 502.268 292.563 502.052C292.019 501.831 291.565 501.457 291.201 500.931C290.842 500.405 290.59 499.751 290.445 498.971C290.305 498.214 290.307 497.526 290.453 496.905C290.603 496.284 290.894 495.767 291.325 495.355C291.756 494.938 292.322 494.664 293.024 494.533ZM293.247 495.731C292.691 495.834 292.314 496.125 292.113 496.604C291.912 497.078 291.895 497.767 292.063 498.671C292.23 499.57 292.491 500.207 292.845 500.583C293.204 500.958 293.662 501.093 294.217 500.99C294.772 500.887 295.148 500.597 295.344 500.119C295.544 499.64 295.56 498.946 295.391 498.038C295.225 497.143 294.965 496.51 294.611 496.14C294.257 495.764 293.802 495.628 293.247 495.731Z" fill="white"/>
<path d="M320.603 489.466L322.181 494.385C322.315 494.802 322.492 495.074 322.714 495.199C322.94 495.322 323.221 495.33 323.559 495.222C323.879 495.119 324.157 494.924 324.394 494.638C324.63 494.351 324.791 494.042 324.876 493.711L323.242 488.619L324.735 488.14L326.993 495.179L325.707 495.591L325.325 494.721C325.175 495.157 324.93 495.532 324.59 495.847C324.249 496.157 323.869 496.379 323.451 496.513C322.772 496.731 322.203 496.708 321.745 496.443C321.291 496.172 320.958 495.708 320.747 495.05L319.11 489.944L320.603 489.466Z" fill="white"/>
<path d="M350.218 487.726L349.744 486.711L350.728 486.253L348.547 481.577L347.564 482.036L347.093 481.027L349.161 480.063L350.146 481.495C350.134 480.817 350.243 480.245 350.475 479.782C350.709 479.312 351.118 478.941 351.701 478.669C351.9 478.577 352.086 478.511 352.258 478.471C352.433 478.426 352.61 478.392 352.79 478.37L352.933 479.786C352.78 479.811 352.64 479.843 352.514 479.881C352.386 479.915 352.25 479.966 352.106 480.033C351.62 480.26 351.284 480.638 351.098 481.168C350.917 481.695 350.88 482.34 350.989 483.103L352.149 485.59L353.5 484.96L353.973 485.975L350.218 487.726ZM352.685 481.424L351.916 479.774L351.712 478.873L352.79 478.37L353.7 480.95L352.685 481.424Z" fill="white"/>
<path d="M377.108 466.533L380.436 471.816L382.136 470.745L382.748 471.717L377.85 474.802L377.238 473.831L379.109 472.652L376.393 468.34L374.581 469.482L373.969 468.511L377.108 466.533ZM374.255 464.053C374.515 463.889 374.774 463.836 375.032 463.895C375.293 463.951 375.499 464.097 375.648 464.334C375.797 464.571 375.842 464.821 375.782 465.085C375.726 465.346 375.568 465.559 375.307 465.723C375.054 465.883 374.796 465.932 374.532 465.872C374.268 465.812 374.062 465.664 373.912 465.427C373.763 465.19 373.72 464.942 373.782 464.682C373.845 464.422 374.002 464.212 374.255 464.053Z" fill="white"/>
<path d="M407.813 454.555C407.714 454.861 407.552 455.175 407.328 455.497C407.104 455.82 406.833 456.112 406.515 456.372C405.852 456.917 405.206 457.16 404.578 457.102C403.951 457.037 403.407 456.723 402.945 456.16L400.401 453.06L399.129 454.103L398.405 453.221L399.677 452.178L398.629 450.901L399.721 449.76L400.889 451.183L402.815 449.602L403.404 450.595L401.613 452.065L404.148 455.154C404.4 455.461 404.664 455.628 404.94 455.655C405.216 455.676 405.529 455.542 405.879 455.255C406.088 455.084 406.261 454.9 406.396 454.704C406.531 454.509 406.639 454.312 406.718 454.114L407.813 454.555Z" fill="white"/>
<path d="M425.307 436.4C425.695 436.723 426.069 436.929 426.428 437.018C426.783 437.105 427.116 437.093 427.427 436.982C427.741 436.868 428.02 436.682 428.264 436.425C428.514 436.161 428.705 435.879 428.835 435.578C428.966 435.278 429.064 434.943 429.131 434.575L430.278 434.728C430.244 435.171 430.129 435.618 429.933 436.069C429.737 436.52 429.457 436.936 429.094 437.319C428.568 437.874 428.003 438.233 427.4 438.394C426.8 438.552 426.194 438.53 425.581 438.328C424.968 438.127 424.384 437.763 423.829 437.236C423.29 436.725 422.903 436.171 422.666 435.573C422.425 434.972 422.355 434.372 422.455 433.772C422.551 433.168 422.84 432.613 423.321 432.105C423.774 431.627 424.271 431.32 424.812 431.184C425.356 431.044 425.917 431.07 426.493 431.263C427.069 431.449 427.636 431.807 428.195 432.337C428.286 432.424 428.374 432.514 428.459 432.607C428.544 432.694 428.617 432.773 428.679 432.844L425.307 436.4ZM424.174 432.894C423.837 433.25 423.685 433.665 423.717 434.139C423.753 434.61 424.022 435.12 424.525 435.668L426.88 433.184C426.366 432.716 425.876 432.456 425.409 432.406C424.945 432.352 424.534 432.515 424.174 432.894Z" fill="white"/>
<path d="M465.972 390.29C466.211 389.862 466.325 389.48 466.315 389.143C466.301 388.804 466.16 388.56 465.891 388.41C465.716 388.312 465.546 388.266 465.383 388.271C465.216 388.274 465.02 388.357 464.795 388.52C464.567 388.681 464.27 388.954 463.906 389.338C463.56 389.701 463.221 390.001 462.891 390.239C462.563 390.473 462.229 390.61 461.891 390.651C461.553 390.692 461.194 390.607 460.815 390.396C460.445 390.189 460.179 389.904 460.017 389.542C459.856 389.179 459.806 388.761 459.867 388.288C459.931 387.81 460.109 387.308 460.402 386.783C460.705 386.241 461.04 385.808 461.407 385.484C461.775 385.16 462.144 384.914 462.515 384.747L463.057 385.803C462.749 385.962 462.458 386.163 462.184 386.406C461.912 386.644 461.671 386.951 461.462 387.326C461.219 387.762 461.109 388.112 461.132 388.376C461.158 388.636 461.279 388.827 461.495 388.947C461.654 389.036 461.815 389.064 461.977 389.032C462.138 388.993 462.331 388.882 462.556 388.698C462.778 388.511 463.07 388.236 463.433 387.872C463.782 387.516 464.12 387.227 464.447 387.003C464.777 386.776 465.118 386.648 465.47 386.62C465.821 386.586 466.2 386.682 466.607 386.91C467.072 387.169 467.378 387.516 467.526 387.951C467.671 388.379 467.694 388.852 467.593 389.367C467.491 389.876 467.301 390.38 467.023 390.877C466.689 391.476 466.315 391.946 465.901 392.286C465.482 392.625 465.059 392.87 464.633 393.022L464.207 391.831C464.552 391.692 464.88 391.496 465.193 391.242C465.501 390.987 465.761 390.669 465.972 390.29Z" fill="white"/>
<path d="M474.401 361.05C474.671 360.379 475.048 359.874 475.531 359.535C476.014 359.197 476.572 359.019 477.203 359.001C477.835 358.979 478.515 359.114 479.242 359.407C479.965 359.698 480.551 360.074 480.999 360.536C481.444 360.992 481.725 361.513 481.842 362.098C481.956 362.677 481.879 363.298 481.613 363.96C481.346 364.623 480.975 365.127 480.498 365.473C480.019 365.814 479.46 365.996 478.821 366.021C478.184 366.041 477.498 365.903 476.762 365.607C476.048 365.32 475.468 364.948 475.023 364.492C474.579 364.032 474.299 363.509 474.182 362.924C474.061 362.337 474.134 361.712 474.401 361.05ZM475.531 361.505C475.32 362.028 475.363 362.503 475.659 362.93C475.951 363.354 476.523 363.738 477.376 364.081C478.225 364.423 478.903 364.544 479.41 364.447C479.919 364.345 480.279 364.032 480.489 363.508C480.7 362.984 480.657 362.511 480.359 362.09C480.062 361.663 479.485 361.278 478.628 360.933C477.784 360.593 477.111 360.473 476.608 360.572C476.101 360.67 475.742 360.981 475.531 361.505Z" fill="white"/>
<path d="M491.633 338.575L484.483 336.7L484.826 335.393L485.784 335.521C485.496 335.127 485.311 334.702 485.228 334.246C485.145 333.79 485.159 333.348 485.272 332.919C485.447 332.251 485.765 331.801 486.226 331.57C486.684 331.333 487.249 331.303 487.922 331.479L493.135 332.846L492.738 334.363L488.276 333.193C487.86 333.084 487.52 333.021 487.254 333.005C486.988 332.988 486.779 333.039 486.627 333.159C486.477 333.274 486.363 333.476 486.288 333.764C486.227 333.995 486.22 334.227 486.264 334.46C486.309 334.694 486.39 334.918 486.508 335.132C486.621 335.345 486.751 335.538 486.899 335.712L492.031 337.058L491.633 338.575Z" fill="white"/>
<path d="M491.858 302.08L493.203 301.833C493.262 302.137 493.285 302.467 493.271 302.823C493.257 303.175 493.223 303.565 493.166 303.996C493.418 303.582 493.711 303.284 494.046 303.102C494.376 302.919 494.761 302.857 495.2 302.915C495.677 302.977 496.087 303.149 496.432 303.43C496.776 303.71 497.026 304.08 497.183 304.538C497.339 304.996 497.377 305.526 497.298 306.128C497.27 306.34 497.237 306.524 497.198 306.679C497.159 306.829 497.109 306.976 497.048 307.118C497.101 307.219 497.178 307.31 497.281 307.389C497.379 307.463 497.489 307.508 497.609 307.524C497.757 307.543 497.894 307.5 498.021 307.395C498.144 307.284 498.23 307.045 498.278 306.68L498.446 305.403C498.514 304.88 498.665 304.432 498.898 304.057C499.127 303.678 499.411 303.395 499.751 303.209C500.086 303.018 500.449 302.948 500.837 302.999C501.568 303.095 502.094 303.485 502.414 304.167C502.733 304.849 502.815 305.782 502.66 306.967C502.55 307.804 502.378 308.45 502.144 308.904C501.91 309.358 501.611 309.66 501.248 309.81C500.885 309.96 500.458 310.003 499.967 309.938L500.151 308.543C500.405 308.577 500.622 308.556 500.801 308.48C500.981 308.4 501.131 308.23 501.25 307.967C501.369 307.705 501.463 307.318 501.53 306.804C501.598 306.29 501.607 305.878 501.559 305.565C501.516 305.249 501.422 305.013 501.278 304.858C501.139 304.698 500.958 304.604 500.736 304.575C500.44 304.536 500.194 304.635 499.998 304.873C499.802 305.111 499.675 305.447 499.618 305.882L499.453 307.138C499.362 307.832 499.154 308.323 498.829 308.609C498.505 308.891 498.155 309.008 497.78 308.959C497.531 308.926 497.299 308.825 497.086 308.655C496.873 308.482 496.699 308.252 496.562 307.965C496.273 308.374 495.951 308.659 495.596 308.82C495.237 308.975 494.821 309.021 494.349 308.959C493.831 308.891 493.394 308.702 493.04 308.392C492.685 308.082 492.429 307.683 492.272 307.196C492.115 306.705 492.077 306.159 492.156 305.557C492.233 304.97 492.267 304.475 492.259 304.074C492.246 303.672 492.201 303.318 492.123 303.011C492.047 302.7 491.958 302.389 491.858 302.08ZM493.226 305.684C493.161 306.179 493.253 306.57 493.503 306.857C493.748 307.143 494.094 307.316 494.543 307.375C495.006 307.436 495.395 307.358 495.711 307.14C496.022 306.918 496.211 306.559 496.276 306.064C496.336 305.606 496.248 305.239 496.011 304.963C495.775 304.682 495.409 304.51 494.914 304.444C494.415 304.379 494.024 304.45 493.743 304.657C493.461 304.865 493.289 305.207 493.226 305.684Z" fill="white"/>
</svg>
